<svg fill="none" xmlns="http://www.w3.org/2000/svg" viewBox="0 0 795 537"><g clip-path="url(#clip0)"><path d="M118 536.932c65.17 0 118-4.03 118-9 0-4.971-52.83-9-118-9s-118 4.029-118 9c0 4.97 52.83 9 118 9z" fill="#E6E6E6"/><path d="M156.218 133.16l-47.076-12.839c12.571-11.862 18.039-23.037 16.405-33.524h30.671v46.363z" fill="#FFEBC6"/><path d="M161.211 494.075l-15.206 2.139-18.318-168.331-29.244 167.618-15.692.713V283.66h97.005l-18.545 210.415z" fill="#2F2E41"/><path d="M90.648 528.008a10.693 10.693 0 0010.607-7.816l1.111-16.574-2.239-11.756c-5.907-4.854-11.88-4.753-17.912 0l-1.924 24.622a10.698 10.698 0 0010.357 11.524zM153.416 528.008a10.691 10.691 0 0010.607-7.816l1.111-16.574-2.239-11.756c-5.908-4.854-11.88-4.753-17.913 0l-1.923 24.622a10.704 10.704 0 002.708 7.983 10.686 10.686 0 007.649 3.541z" fill="#2F2E41"/><path d="M149.799 108.909c14.969 0 27.104-12.135 27.104-27.105 0-14.969-12.135-27.104-27.104-27.104-14.97 0-27.105 12.135-27.105 27.104 0 14.97 12.135 27.105 27.105 27.105z" fill="#FFEBC6"/><path d="M184.036 287.226H80.611c13.405-62.124 13.368-112.158 2.69-152.622a10.813 10.813 0 016.576-12.854l27.824-10.702c8.354 10.788 20.142 15.5 38.517 8.56l14.581 2.991a14.98 14.98 0 0111.957 15.665c-1.073 15.826-.65 31.772-1.574 45.538-2.859 42.628-4.093 75.86 2.854 103.424z" fill="#E6E6E6"/><path d="M135.533 46.14s15.692-17.83 34.237-.712l4.993 1.426-3.566 2.853s18.545 8.56 17.118 26.391c0 0-2.853-.713-4.279 0-1.427.713-2.14 8.56-2.14 8.56s-2.14-5.707-2.853-6.42c-.714-.713-10.699 7.846-27.105-4.993 0 0-4.993 12.839-10.699 11.412-5.706-1.426-13.552-.713-17.118 8.56 0 0-19.259-41.37 11.412-47.076z" fill="#2F2E41"/><path d="M189.028 271.534l-9.156 12.272a12.039 12.039 0 00-2.249 9.013 12.033 12.033 0 004.843 7.927 12.028 12.028 0 0018.922-7.847l2.619-16.372L209 205.913l-3.566-35.663-22.825 8.559 6.419 30.671v62.054z" fill="#FFEBC6"/><path d="M179.756 187.368l27.817-12.839-1.426-10.105a41.48 41.48 0 00-26.489-38.682l-8.461-3.281 8.559 64.907z" fill="#E6E6E6"/><path d="M78.472 268.681l9.156 12.272a12.022 12.022 0 012.248 9.013 12.032 12.032 0 01-4.843 7.927 12.033 12.033 0 01-11.652 1.362 12.031 12.031 0 01-7.269-9.21l-2.62-16.371L58.5 203.06l3.566-35.663 22.825 8.559-6.42 30.671v62.054z" fill="#FFEBC6"/><path d="M87.744 184.515l-27.818-12.839 1.427-10.105a41.492 41.492 0 0126.49-38.682l8.46-3.281-8.559 64.907zM787.5 488h-476a7.509 7.509 0 01-7.5-7.5v-207a7.509 7.509 0 017.5-7.5h476a7.509 7.509 0 017.5 7.5v207a7.509 7.509 0 01-7.5 7.5zm-476-219a4.508 4.508 0 00-3.181 1.319A4.508 4.508 0 00307 273.5v207a4.508 4.508 0 001.319 3.181A4.508 4.508 0 00311.5 485h476a4.508 4.508 0 003.181-1.319A4.508 4.508 0 00792 480.5v-207a4.508 4.508 0 00-1.319-3.181A4.508 4.508 0 00787.5 269h-476z" fill="#E6E6E6"/><path d="M331 291.5a4.5 4.5 0 000 9h63a4.5 4.5 0 000-9h-63zM762.29 322.795v83.45H337.46v-43.938a436.984 436.984 0 018.887-5.587c12.754-7.805 26.406-15.105 41.283-17.81a62.316 62.316 0 0121.313-.266c7.466 1.233 14.611 3.805 21.686 6.386 6.977 2.554 13.971 5.188 21.268 6.67a62.252 62.252 0 0021.571.425c13.66-2.048 26.494-7.538 39.274-12.505 12.861-4.993 26.112-9.712 40.03-10.333 13.741-.62 27.312 2.626 40.35 6.652 26.583 8.204 53.726 20.373 81.874 12.027 28.582-8.461 54.872-32.887 86.548-25.641.3.056.567.224.746.47z" fill="#E6E6E6"/><path d="M762.29 324.25a1.28 1.28 0 01-1.454.638 47.377 47.377 0 00-11.512-1.188c-31.158.55-55.113 25.632-85.578 29.383-27.468 3.379-53.322-9.978-79.148-16.958-13.419-3.627-27.255-5.552-41.065-3.086-13.702 2.439-26.563 8.044-39.476 13.02-12.434 4.789-25.357 9.242-38.82 9.463-14.803.249-28.133-5.853-41.862-10.501-7.14-2.421-14.466-4.337-22.031-4.523a66.653 66.653 0 00-21.712 3.361c-14.589 4.639-27.734 12.905-40.532 21.118a1.136 1.136 0 01-.754.204 1.373 1.373 0 01-.585-2.501l.585-.373a438.567 438.567 0 018.87-5.587c12.727-7.805 26.35-15.105 41.197-17.81a62.055 62.055 0 0121.268-.266c7.45 1.233 14.581 3.805 21.64 6.386 6.963 2.554 13.943 5.188 21.224 6.67a62.02 62.02 0 0021.526.425c13.631-2.048 26.438-7.538 39.192-12.505 12.834-4.993 26.058-9.712 39.947-10.333 13.711-.62 27.255 2.626 40.265 6.652 26.528 8.204 53.614 20.373 81.703 12.027 28.523-8.461 54.758-32.887 86.367-25.641.3.056.566.224.745.47a1.367 1.367 0 010 1.455z" fill="#17D1E0"/><path d="M395.996 345.935a6.208 6.208 0 100-12.417 6.208 6.208 0 000 12.417zM552.979 337.953a6.21 6.21 0 100-12.418 6.21 6.21 0 000 12.418zM744.552 329.97a6.207 6.207 0 006.208-6.208 6.207 6.207 0 00-6.208-6.208 6.207 6.207 0 00-6.208 6.208 6.207 6.207 0 006.208 6.208z" fill="#17D1E0"/><path d="M392.5 441.5a4.5 4.5 0 000 9h63a4.5 4.5 0 000-9h-63z" fill="#E6E6E6"/><path d="M352 462.5c9.389 0 17-7.611 17-17s-7.611-17-17-17-17 7.611-17 17 7.611 17 17 17z" fill="#17D1E0"/><path d="M544.5 441.5a4.5 4.5 0 000 9h63a4.5 4.5 0 000-9h-63z" fill="#E6E6E6"/><path d="M504 462.5c9.389 0 17-7.611 17-17s-7.611-17-17-17-17 7.611-17 17 7.611 17 17 17z" fill="#17D1E0"/><path d="M696.5 441.5a4.5 4.5 0 000 9h63a4.5 4.5 0 000-9h-63z" fill="#E6E6E6"/><path d="M656 462.5c9.389 0 17-7.611 17-17s-7.611-17-17-17-17 7.611-17 17 7.611 17 17 17zM349.326 32A76.01 76.01 0 00412 151V84.65L349.326 32z" fill="#17D1E0"/><path d="M412 0a77.101 77.101 0 00-35.607 8.679C365.415 14.387 356.012 22.651 349 32.756L412 85V0z" fill="#E5E5E5"/><path d="M411.828 151H411V0h.828c20.202 0 39.577 7.954 53.862 22.113C479.975 36.273 488 55.476 488 75.5s-8.025 39.228-22.31 53.387C451.405 143.046 432.03 151 411.828 151zm.828-149.354v147.708c19.618-.216 38.359-8.092 52.155-21.919 13.795-13.827 21.533-32.489 21.533-51.935 0-19.446-7.738-38.108-21.533-51.935-13.796-13.827-32.537-21.703-52.155-21.92z" fill="#E5E5E5"/><path d="M623 214.5h-17a4.5 4.5 0 01-3.18-1.32 4.5 4.5 0 01-1.32-3.18v-49a4.504 4.504 0 014.5-4.5h17a4.508 4.508 0 013.181 1.319A4.508 4.508 0 01627.5 161v49a4.5 4.5 0 01-1.32 3.18 4.5 4.5 0 01-3.18 1.32z" fill="#17D1E0"/><path d="M673 214.5h-17a4.5 4.5 0 01-3.18-1.32 4.5 4.5 0 01-1.32-3.18v-72a4.504 4.504 0 014.5-4.5h17a4.508 4.508 0 013.181 1.319A4.508 4.508 0 01677.5 138v72a4.5 4.5 0 01-1.32 3.18 4.5 4.5 0 01-3.18 1.32z" fill="#E5E5E5"/><path d="M723 214.5h-17a4.5 4.5 0 01-3.18-1.32 4.5 4.5 0 01-1.32-3.18v-92a4.504 4.504 0 014.5-4.5h17a4.508 4.508 0 013.181 1.319A4.508 4.508 0 01727.5 118v92a4.5 4.5 0 01-1.32 3.18 4.5 4.5 0 01-3.18 1.32z" fill="#17D1E0"/><path d="M623 215h-17a5.01 5.01 0 01-3.534-1.466A5.01 5.01 0 01601 210V100a5.01 5.01 0 015-5h17a5.005 5.005 0 015 5v110a5.008 5.008 0 01-5 5zM606 97a3.003 3.003 0 00-3 3v110a3 3 0 003 3h17a3 3 0 003-3V100a3.002 3.002 0 00-3-3h-17zM673 215h-17a5.01 5.01 0 01-3.534-1.466A5.01 5.01 0 01651 210V100a5.01 5.01 0 015-5h17a5.005 5.005 0 015 5v110a5.008 5.008 0 01-5 5zM656 97a3.003 3.003 0 00-3 3v110a3 3 0 003 3h17a3 3 0 003-3V100a3.002 3.002 0 00-3-3h-17zM723 215h-17a5.01 5.01 0 01-3.534-1.466A5.01 5.01 0 01701 210V100a5.01 5.01 0 015-5h17a5.005 5.005 0 015 5v110a5.008 5.008 0 01-5 5zM706 97a3.003 3.003 0 00-3 3v110a3 3 0 003 3h17a3 3 0 003-3V100a3.002 3.002 0 00-3-3h-17z" fill="#E5E5E5"/></g><defs><clipPath id="clip0"><path fill="#fff" d="M0 0h795v537H0z"/></clipPath></defs></svg>