<svg fill="none" xmlns="http://www.w3.org/2000/svg" viewBox="0 0 29 24"><path d="M23.993 1.411A.706.706 0 1023.33.95l-6.274 7.53a.708.708 0 00-.556.14L10.578 6.25a.706.706 0 00-1.386-.061L3.307 7.954a.706.706 0 10.203.676l5.885-1.765a.703.703 0 00.92.04l5.923 2.37a.706.706 0 101.36-.345L23.873 1.4c.04.007.08.01.12.01z" fill="#000"/><path fill-rule="evenodd" clip-rule="evenodd" d="M8.468 9.174v14.115H4.234V11.29H1.411v11.996H.001L0 23.993 28.227 24v-.706h-2.823V3.528h-2.823v19.765l-4.234-.001V11.996h-2.822v11.295l-4.234-.001V9.174H8.468zm2.117 14.113V9.88H9.174v13.408h1.411zm-7.057-11.29v11.29H2.117v-11.29h1.411zm12.702.705v10.585h1.412V12.702H16.23zm7.057 10.585V4.234H24.7v19.053h-1.412z" fill="#000"/></svg>