<svg fill="none" xmlns="http://www.w3.org/2000/svg" viewBox="0 0 29 24"><path d="M24.559 1.411a.706.706 0 10-.573-.293l-6.182 7.418a.703.703 0 00-.87.22l-5.789-2.315a.706.706 0 10-1.405-.063L3.993 8.103a.705.705 0 10.1.338l5.749-1.725a.705.705 0 001.172.053l5.788 2.315a.706.706 0 101.273-.322l6.182-7.418a.703.703 0 00.302.067z" fill="#000"/><path fill-rule="evenodd" clip-rule="evenodd" d="M9.034 9.174v14.468L4.8 23.641v-12.35H1.977V23.64H.567l-.001.353L28.793 24v-.353H25.97V3.527h-2.822v20.118l-4.235-.001V11.996h-2.822v11.648l-4.234-.001V9.173H9.034zm2.47 14.466V9.527H9.387V23.64h2.117zM4.447 11.644V23.64H2.33V11.644h2.117zm11.997.705V23.64h2.117V12.35h-2.117zM23.5 23.64V3.881h2.117V23.64H23.5z" /></svg>