<svg fill="none" xmlns="http://www.w3.org/2000/svg" viewBox="0 0 37 26"><rect x="27.768" y="3.5" width="3.5" height="19" rx=".75" stroke="#17D1E0" stroke-width=".5"/><rect x="31.25" y="6.75" width="3.5" height="12.5" rx=".75" stroke="#000" stroke-width=".5"/><rect x="24.25" y=".25" width="3.5" height="25.5" rx=".75" stroke="#000" stroke-width=".5"/><rect x="-.25" y=".25" width="3.5" height="19" rx=".75" transform="matrix(-1 0 0 1 9 3.25)" stroke="#17D1E0" stroke-width=".5"/><rect x="-.25" y=".25" width="3.5" height="12.5" rx=".75" transform="matrix(-1 0 0 1 5.5 6.5)" stroke="#000" stroke-width=".5"/><rect x="-.25" y=".25" width="3.5" height="25.5" rx=".75" transform="matrix(-1 0 0 1 12.5 0)" stroke="#000" stroke-width=".5"/><path stroke="#000" stroke-width=".5" d="M12.762 11.25h11.452v3.5H12.762z"/><rect x=".733" y="11.25" width="1.5" height="3.5" rx=".75" stroke="#000" stroke-width=".5"/><rect x="34.743" y="11.25" width="1.5" height="3.5" rx=".75" stroke="#000" stroke-width=".5"/></svg>