<svg fill="none" xmlns="http://www.w3.org/2000/svg" viewBox="0 0 34 24"><path fill-rule="evenodd" clip-rule="evenodd" d="M21.767.923c0-.51.414-.923.924-.923h1.846c.51 0 .923.413.923.923v2.21A.92.92 0 0125.939 3h1.846c.51 0 .923.413.923.923v2.19A.919.919 0 0129.152 6h1.846c.51 0 .923.413.923.923v3.35a.923.923 0 011.378.803v1.847a.923.923 0 01-1.378.803v3.35c0 .51-.413.924-.923.924h-1.846a.918.918 0 01-.444-.114v2.19c0 .51-.414.924-.923.924h-1.846a.919.919 0 01-.48-.134v2.21c0 .51-.412.924-.922.924H22.69a.923.923 0 01-.924-.923v-9.23H11.614v9.23c0 .51-.414.923-.923.923H8.844a.923.923 0 01-.923-.923v-2.2A.92.92 0 017.46 21H5.614a.923.923 0 01-.923-.923v-2.2a.92.92 0 01-.462.123H2.383a.923.923 0 01-.923-.923v-3.364a.923.923 0 01-1.4-.79v-1.846a.923.923 0 011.4-.79V6.923c0-.51.413-.923.923-.923h1.846c.168 0 .326.045.462.123v-2.2c0-.51.413-.923.923-.923H7.46c.168 0 .326.045.461.123v-2.2c0-.51.414-.923.923-.923h1.847c.51 0 .923.413.923.923v9.23h10.153V.924zm.924-.461h1.846c.255 0 .461.206.461.461v22.154a.462.462 0 01-.461.461H22.69a.462.462 0 01-.462-.461V.923c0-.255.207-.461.462-.461zm8.769 10.505a.932.932 0 00-.007.11v1.846c0 .037.003.074.007.11v4.044a.462.462 0 01-.462.461h-1.846a.462.462 0 01-.444-.336V6.798a.462.462 0 01.444-.336h1.846c.255 0 .462.206.462.461v4.044zM31.92 13a.462.462 0 00.917-.078v-1.846a.461.461 0 00-.917-.078v2.002zm-4.136-9.54h-1.846a.462.462 0 00-.462.462v16.154c0 .255.207.461.462.461h1.846a.462.462 0 00.461-.461v-2.823a.927.927 0 01-.017-.177V6.923c0-.06.006-.12.017-.178V3.923a.462.462 0 00-.461-.461zm-22.171 0H7.46c.255 0 .461.207.461.462v16.154a.462.462 0 01-.461.461H5.614a.462.462 0 01-.462-.461V3.923c0-.255.207-.461.462-.461zm2.769 19.616V.923c0-.255.207-.461.461-.461h1.847c.254 0 .461.206.461.461v22.154a.462.462 0 01-.461.461H8.844a.462.462 0 01-.461-.461zM4.69 6.923a.462.462 0 00-.462-.461H2.383a.462.462 0 00-.462.461v10.154c0 .255.207.461.462.461h1.846a.462.462 0 00.462-.461V6.923zm6.934 3.692h10.11v2.77h-10.11v-2.77zm-10.18 2.308v-1.846a.462.462 0 00-.924 0v1.846a.462.462 0 00.923 0z" /></svg>