<svg fill="none" xmlns="http://www.w3.org/2000/svg" viewBox="0 0 25 25"><path fill-rule="evenodd" clip-rule="evenodd" d="M24.467 5.748L7.055 23.16l-.004-.004-.007.007L.68 24.414l1.257-6.373-.002-.002.003-.004.002-.01.029-.02L19.346.625a.724.724 0 011.024 0l4.097 4.097a.724.724 0 010 1.025zM20.114.882a.362.362 0 00-.512 0l-2.048 2.049 4.609 4.61 2.048-2.05a.362.362 0 000-.512L20.114.882zM2.446 18.04L17.297 3.188l4.61 4.609L7.054 22.648l-4.61-4.61zm-1.307 5.916l1.105-5.603 4.487 4.503-5.592 1.1z" fill="#000"/></svg>