<svg fill="none" xmlns="http://www.w3.org/2000/svg" viewBox="0 0 21 24"><path fill-rule="evenodd" clip-rule="evenodd" d="M19.52 15.6a8.517 8.517 0 011.05 4.115V24H.001v-4.286-.022a8.57 8.57 0 015.457-7.966 6.827 6.827 0 01-2.029-4.869 6.857 6.857 0 1111.686 4.87 8.61 8.61 0 014.407 3.873zm-5.317-4.177l.308-.306a6 6 0 10-8.45 0l.308.306.348.258a5.97 5.97 0 003.569 1.176 5.97 5.97 0 003.569-1.176l.348-.258zm4.875 5.217a7.737 7.737 0 00-4.713-4.27 6.827 6.827 0 01-4.08 1.344c-1.527 0-2.939-.5-4.079-1.345a7.736 7.736 0 00-4.789 4.455 7.693 7.693 0 00-.56 2.89v3.429h18.857v-3.429a7.69 7.69 0 00-.636-3.073z" fill="#000"/></svg>