<svg fill="none" xmlns="http://www.w3.org/2000/svg" viewBox="0 0 21 24"><path fill-rule="evenodd" clip-rule="evenodd" d="M20.044 15.844a8.535 8.535 0 01.921 3.87V24H.394v-4.286a8.573 8.573 0 015.457-7.988 6.831 6.831 0 01-2.029-4.869 6.857 6.857 0 1111.686 4.87 8.606 8.606 0 014.536 4.118zm-4.998-4.264l.16-.158a6.429 6.429 0 10-9.053 0l.16.158.17.147a6.402 6.402 0 004.197 1.559c1.604 0 3.07-.587 4.196-1.559l.17-.147zm4.637 4.5a8.17 8.17 0 00-4.527-4.028 6.83 6.83 0 01-4.476 1.662 6.83 6.83 0 01-4.477-1.662 8.168 8.168 0 00-4.79 4.61 8.121 8.121 0 00-.59 3.052v3.857h19.714v-3.857a8.11 8.11 0 00-.854-3.634z" fill="#000"/></svg>