<svg fill="none" xmlns="http://www.w3.org/2000/svg" viewBox="0 0 31 22"><path fill-rule="evenodd" clip-rule="evenodd" d="M20.308 9.308V.846c0-.467.378-.846.846-.846h1.692c.468 0 .846.379.846.846V2.75h1.693c.467 0 .846.379.846.846V5.5h1.692c.467 0 .846.379.846.846v2.962h.846c.468 0 .847.379.847.846v1.692a.846.846 0 01-.847.846h-.846v2.962a.846.846 0 01-.846.846h-1.692v1.904a.846.846 0 01-.846.846h-1.693v1.904a.846.846 0 01-.846.846h-1.692a.846.846 0 01-.846-.846v-8.462H10.154v8.462a.846.846 0 01-.846.846H7.615a.846.846 0 01-.846-.846V19.25H5.077a.846.846 0 01-.846-.846V16.5H2.538a.846.846 0 01-.846-.846v-2.962H.846A.846.846 0 010 11.846v-1.692c0-.467.379-.846.846-.846h.846V6.346c0-.467.38-.846.846-.846h1.693V3.596c0-.467.379-.846.846-.846h1.692V.846C6.77.38 7.15 0 7.615 0h1.693c.467 0 .846.379.846.846v8.462h10.154zm.846-8.462h1.692v20.308h-1.692V.846zm6.77 5.5H26.23v9.308h1.692V6.346zm.845 5.5h.846v-1.692h-.846v1.692zM1.692 10.154v1.692H.846v-1.692h.846zm.846 5.5V6.346h1.693v9.308H2.538zm7.616-5.5v1.692h10.154v-1.692H10.154zM9.308.846H7.615v20.308h1.693V.846zm14.384 17.558h1.693V3.596h-1.693v14.808zM5.077 3.596h1.692v14.808H5.077V3.596z" fill="#000"/></svg>