<svg fill="none" xmlns="http://www.w3.org/2000/svg" viewBox="0 0 25 24"><path fill-rule="evenodd" clip-rule="evenodd" d="M7.719 3.432a.185.185 0 01.258-.073 9.238 9.238 0 009.404 0 .185.185 0 01.257.073l2.336 4.436a.319.319 0 01-.138.433 15.937 15.937 0 01-14.314 0 .319.319 0 01-.139-.433l2.336-4.436zm9.624.155l.073.137a9.564 9.564 0 01-4.57 1.253v1.796a.167.167 0 11-.333 0V4.977a9.564 9.564 0 01-4.571-1.253l.072-.137a.149.149 0 01-.207.059l.135.078L5.685 8.01l-.013-.007c.007.004.01.013.006.02l.007-.013c.448.225.905.427 1.367.606a.166.166 0 01.015-.054l.42-.908a.167.167 0 11.302.14l-.42.907a.168.168 0 01-.015.028 15.59 15.59 0 002.302.64l.215-.958a.167.167 0 11.325.073l-.212.947a15.61 15.61 0 002.528.233v-.94a.167.167 0 01.333 0v.94a15.61 15.61 0 002.283-.192l-.198-.918a.167.167 0 11.326-.07l.2.932a15.59 15.59 0 002.33-.61l-.372-.909a.167.167 0 11.308-.126l.378.922a15.613 15.613 0 001.573-.683l.007.013a.015.015 0 01.006-.02l-.013.007-2.257-4.286.135-.078a.149.149 0 01-.207-.059z" fill="#000"/><path fill-rule="evenodd" clip-rule="evenodd" d="M.68.667C.68.298.978 0 1.346 0h22.667c.368 0 .666.298.666.667v22.666a.667.667 0 01-.666.667H1.346a.667.667 0 01-.666-.667V.667zm.666-.334h22.667c.184 0 .333.15.333.334v22.666c0 .184-.15.334-.333.334H1.346a.333.333 0 01-.333-.334V.667c0-.184.15-.334.333-.334z" /></svg>